<?xml version="1.0" encoding="UTF-8"?>
<svg id="Layer_2" data-name="Layer 2" xmlns="http://www.w3.org/2000/svg" viewBox="0 0 79.24 84.85">
  <defs>
    <style>
      .cls-1 {
        fill: none;
      }

      .cls-2 {
        fill: #e2d649;
      }

      .cls-3 {
        fill: #d2cf53;
      }

      .cls-4 {
        fill: #c4bd3d;
      }

      .cls-5 {
        fill: #ada736;
      }

      .cls-6 {
        fill: #f2e5bb;
      }
    </style>
  </defs>
  <g id="Layer_2-2" data-name="Layer 2">
    <path class="cls-1" d="M14.32,75.66l-.12-14.16-4.18-2.02,2.05,19.24,2.31-2.81c-.03-.08-.06-.16-.06-.25Z"/>
    <polygon class="cls-1" points="1.54 51.78 1.98 54.78 2.99 50.32 1.54 51.78"/>
    <polygon class="cls-1" points="5.75 41.43 6.88 37.85 7.28 36.48 6.38 37.56 5.75 41.43"/>
    <polygon class="cls-1" points="11.75 53.42 9.97 58.58 14.29 60.68 11.75 53.42"/>
    <polygon class="cls-1" points="2.66 55.35 2.66 55.35 4.78 52.55 3.94 49.7 2.66 55.35"/>
    <polygon class="cls-6" points="10.02 59.47 10.02 59.47 10.02 59.46 10.02 59.47"/>
    <g>
      <polygon class="cls-2" points="53.14 34.19 53.14 50.03 39.42 57.95 39.42 42.11 53.14 34.19"/>
      <polygon class="cls-4" points="39.42 26.27 39.42 26.27 53.14 34.19 39.42 42.11 25.7 34.19 39.42 26.27"/>
      <polygon class="cls-5" points="25.7 34.19 39.42 42.11 39.42 57.95 39.42 57.95 25.7 50.03 25.7 34.19"/>
    </g>
    <path class="cls-6" d="M79.15,34.82l-5.53-10.36-.05-2.29c0-.23-.11-.44-.28-.58l-3.79-3.17,4.83-6.64c.07-.1.12-.21.14-.33l1.42-8.2c.06-.33-.11-.67-.4-.83-.3-.16-.67-.11-.91.13l-5.52,5.31c-.05.05-.09.1-.13.17l-2.79,4.72.6-4.42c0-.05,0-.11,0-.16l-.56-7.44c-.02-.32-.24-.6-.55-.69-.31-.09-.64,0-.84.26l-4.09,5.17c-.08.1-.14.22-.16.35l-1.83,10.75-19.04,8.46-22.05-.48c-.21,0-.4.07-.55.21l-8.33,7.85c-.08.06-.15.14-.2.23l-3.4,4.1c-.09.11-.15.24-.17.37l-1.77,10.89-2.95,2.95c-.18.18-.26.42-.22.67l.96,6.44c.05.31.28.57.58.64.31.08.63-.03.82-.29l3.98-5.24c.15-.2.2-.46.13-.7l-1.2-4.05,3.18-10.13.27-.92,2.1,14.16-2.35,6.81c-.04.11-.05.22-.04.34l2.29,21.5c.04.4.38.7.78.7h5.9c.27,0,.52-.14.67-.37.14-.23.16-.52.03-.76l-2.15-4.29-.12-13.69,1.38-1.29,4.72,17.66c.09.34.4.58.76.58h0l5.72-.06c.29,0,.56-.17.69-.43.13-.26.11-.57-.05-.81l-2.86-4.08-2.42-12.17,6.46-7.41,8.26,4.88,1.48,22.6c.03.41.37.73.78.73h5.84c.28,0,.53-.15.67-.38.14-.24.15-.53.01-.78l-2.53-4.6,1.48-13.41,1.27,15.74c.03.41.37.72.78.72h5.6c.27,0,.53-.14.67-.37.14-.23.15-.52.03-.77l-2.54-4.97,2.41-23.25,9.09-14.98,5.67,3.88,1.91,2.11c.17.18.41.28.66.25l4.45-.46c.28-.03.52-.2.63-.45l2.28-4.96c.1-.22.09-.48-.02-.7ZM2.06,54.98l-.45-3,1.46-1.46-1.01,4.45ZM2.74,55.56l1.28-5.65.84,2.85-2.12,2.8ZM6.96,38.06l-1.12,3.58.63-3.87.9-1.09-.4,1.37ZM72.01,22.56l.04,2.12c0,.12.03.24.09.35l5.13,9.62-5.07-.61-9.38-12.86,5.12-2.03,4.06,3.4ZM70.22,8.91l3.72-3.58-.98,5.66-4.97,6.84-2.26-1.31,4.5-7.61ZM67.54,18.48l-4.42,1.75,1.72-2.98c.14,0,.26-.04.38-.11l2.31,1.34ZM60.18,17.25l1.87-10.96,2.72-3.44.4,5.35-1.1,8.17c-.02.18.02.35.1.49l-1.99,3.43-2.06-2.85c.03-.06.05-.12.06-.19ZM61.69,20.95l-1.72,1.55-.14-4.11,1.85,2.57ZM37.34,26.55l-11.98,6.68-6.49-7.08,18.47.4ZM17.83,26.18l6.83,7.45-13.97-.72,7.14-6.73ZM24.87,34.43l-.22,14.24-14.47-15,14.69.76ZM10.11,36.23l-.07-1.6,14.61,15.14v.15s-12.29,1.43-12.29,1.43l-2.24-15.12ZM11.84,53.63l2.54,7.26-4.32-2.09,1.78-5.17ZM10.1,59.68l4.18,2.03.12,14.17c0,.09.03.17.06.25l-2.31,2.81-2.05-19.25ZM16.14,79.54h-3.48l2.17-2.63,1.31,2.63ZM17.09,58.7l-2,1.86-2.84-8.12.1-.29,11.7-1.37-6.97,7.92ZM26.94,77.33l-3.25.03,1.57-2.43,1.68,2.39ZM24.71,74.03c.01.07.05.13.08.19l-1.65,2.54-4.48-16.73,3.51,1.28s0,.01,0,.02l2.53,12.71ZM22.44,60.57l-3.72-1.35,7.04-8.01,3.18,1.9-6.51,7.46ZM38.9,57.23l-12.69-7.58.22-14.64,12.69,7.44-.23,14.78ZM26.71,34.27l13.04-7.27,12.37,7.39-12.6,7.39-12.81-7.51ZM45.3,80.63h-3.53l1.93-2.91,1.6,2.91ZM43.19,76.51c-.02.15.01.3.08.43l-1.82,2.75-1.37-20.87,5.39-3.01-2.29,20.7ZM52.63,77.92h-3.42l1.8-3.17,1.62,3.17ZM50.48,73.44c-.02.15.01.3.08.44l.02.04-1.64,2.88-1.77-21.93,5.55-3.1-2.25,21.67ZM52.6,50.05l-12.92,7.2.23-14.79,12.92-7.58-.23,15.17ZM41.22,26.05l17.82-7.92.17,5.05-.07.07s-.06.06-.08.1l-5.62,10-12.22-7.3ZM54.2,47.54l.2-13.16c0-.24-.11-.47-.3-.62l5.16-9.17.2,5.88c0,.1.04.19.11.26l2.98,3.06-8.35,13.75ZM63.77,33.38c-.18-.12-.4-.16-.61-.12,0,0-.02,0-.02.01l-2.9-2.97-.23-6.77,2.14-1.93,9.37,12.85-1.72,3.08-6.04-4.14ZM72.04,39.78l-1.61-1.77,1.61-2.87,3.15,4.32-3.15.32ZM75.84,39.01l-2.99-4.11,4.62.56-1.63,3.55Z"/>
  </g>
</svg>