<?xml version="1.0" encoding="UTF-8"?>
<svg id="Layer_2" data-name="Layer 2" xmlns="http://www.w3.org/2000/svg" viewBox="0 0 28.45 3.39">
  <defs>
    <style>
      .cls-1 {
        fill: #d2cf53;
      }

      .cls-2 {
        fill: #f2e5bb;
      }
    </style>
  </defs>
  <g id="Layer_2-2" data-name="Layer 2">
    <g>
      <path class="cls-1" d="M0,2.69h0s0-.01.02-.01h.02c.12,0,.18-.04.23-.17l.59-1.49c.05-.13,0-.16-.12-.17h-.01s-.02,0-.02-.01h0s0-.01.02-.01h.31c.11,0,.26-.01.37-.01.36,0,.56.16.56.42,0,.37-.37.67-.9.67-.15,0-.27-.02-.35-.05l-.25.63c-.05.15-.02.19.14.2h.01s.02,0,.02.01h0s0,.01-.02.01H.02s-.02,0-.02-.01ZM.74,1.79c.11.02.22.03.28.03.49,0,.73-.31.73-.61,0-.2-.1-.33-.36-.33-.05,0-.13,0-.19,0-.09.01-.12.03-.15.1l-.31.79h0Z"/>
      <path class="cls-1" d="M1.67,2.38c0-.38.35-.89.67-.89.19,0,.27.15.27.34,0,.38-.35.89-.66.89-.19,0-.28-.15-.28-.34ZM2.17,2.5c.13-.18.29-.57.29-.81,0-.09-.02-.16-.1-.16-.08,0-.17.08-.23.17-.14.18-.29.57-.29.81,0,.09.02.16.1.16.08,0,.17-.08.23-.17Z"/>
      <path class="cls-1" d="M3.65,2.72c-.14,0-.21-.09-.23-.25-.16.13-.31.24-.46.24-.12,0-.19-.07-.19-.18,0-.26.38-.56.61-.89-.16.06-.39.01-.48.01-.06,0-.1.03-.1.07,0,.07.13.05.13.15,0,.04-.03.07-.08.07-.08,0-.11-.1-.11-.16,0-.12.12-.28.29-.28.08,0,.18.03.32.03.11,0,.14-.04.17-.08,0-.01.03,0,.02.01-.3.5-.57.76-.57,1,0,.08.05.13.13.13.08,0,.17-.06.31-.17,0-.02,0-.05,0-.07,0-.43.27-.84.47-.84.08,0,.13.05.13.16,0,.24-.28.53-.46.69,0,.13.04.23.16.23.22,0,.53-.39.53-.73,0-.12-.07-.18-.07-.27,0-.06.04-.11.1-.11.06,0,.1.06.1.18,0,.42-.39,1.05-.73,1.05h0ZM3.55,2.3c.16-.16.38-.42.38-.62,0-.06-.02-.08-.06-.08-.11,0-.32.34-.32.69h0Z"/>
      <path class="cls-1" d="M4.36,2.45c0-.24.17-.55.34-.73.12-.13.28-.23.43-.23.1,0,.17.05.17.14,0,.19-.33.43-.71.51-.03.09-.04.17-.04.26,0,.12.03.18.13.18s.24-.07.4-.3c0-.01.03,0,.02.01-.16.28-.33.44-.52.44-.14,0-.22-.1-.22-.27ZM5.14,1.62c0-.05-.02-.07-.06-.07-.06,0-.2.07-.31.22-.07.09-.13.21-.17.33.35-.1.54-.33.54-.48Z"/>
      <path class="cls-1" d="M5.41,2.71s-.05.01-.07.01c-.08,0-.09-.04-.06-.1.11-.26.18-.43.22-.56.09-.24.11-.33.11-.38,0-.04-.01-.06-.04-.06-.06,0-.16.11-.23.21,0,.01-.02,0-.02,0,.09-.15.26-.33.39-.33.06,0,.09.04.09.1,0,.09-.04.19-.2.63.14-.31.25-.5.35-.61.08-.09.16-.12.24-.12.06,0,.14.03.14.11,0,.06-.05.11-.11.11-.05,0-.08-.02-.1-.05-.02-.03-.03-.04-.06-.04-.09,0-.23.19-.42.6-.08.17-.14.32-.19.46,0,.02-.01.03-.03.03Z"/>
      <path class="cls-1" d="M6.08,2.45c0-.24.17-.55.34-.73.12-.13.28-.23.43-.23.1,0,.17.05.17.14,0,.19-.33.43-.71.51-.03.09-.04.17-.04.26,0,.12.03.18.13.18s.24-.07.4-.3c0-.01.03,0,.02.01-.16.28-.33.44-.52.44-.14,0-.22-.1-.22-.27ZM6.85,1.62c0-.05-.02-.07-.06-.07-.06,0-.2.07-.31.22-.07.09-.13.21-.17.33.35-.1.54-.33.54-.48Z"/>
      <path class="cls-1" d="M7.07,2.72c-.11,0-.17-.08-.17-.2,0-.19.14-.44.31-.63.22-.25.46-.4.62-.4.08,0,.13.02.15.05.05-.11.15-.38.19-.48.03-.08.02-.13-.06-.14h-.05s-.01-.01-.01-.02,0,0,.01-.01c.13-.02.27-.08.38-.14,0,0,.01,0,.02,0,0,0,.01,0,0,.02-.21.52-.42,1.04-.62,1.55-.04.11-.06.18-.06.23,0,.04.01.05.04.05.05,0,.13-.07.24-.22,0,0,.02,0,.02,0-.12.22-.28.36-.38.36-.06,0-.1-.04-.1-.11,0-.12.07-.3.2-.6-.21.38-.53.72-.73.72h0ZM7.65,2.15c.14-.19.25-.38.25-.51,0-.06-.03-.09-.08-.09-.12,0-.33.16-.52.41-.14.19-.21.39-.21.51,0,.06.02.1.07.1.12,0,.31-.17.49-.42Z"/>
      <path class="cls-1" d="M9.02,2.72c-.16,0-.24-.1-.24-.25,0-.1.04-.21.06-.3.07-.27.33-.88.41-1.1.03-.08.02-.13-.06-.14h-.05s-.01-.01-.01-.02c0,0,0,0,.01-.01.13-.02.27-.08.38-.14,0,0,.01,0,.02,0,0,0,.01,0,0,.02l-.58,1.47c.21-.39.5-.73.74-.73.13,0,.16.1.16.21,0,.16-.1.39-.27.61-.18.24-.41.41-.59.41h0ZM9.49,2.26c.14-.21.2-.39.2-.5,0-.08-.03-.13-.09-.13-.11,0-.3.16-.47.41-.14.2-.2.38-.2.49,0,.08.03.12.09.12.11,0,.3-.15.47-.39Z"/>
      <path class="cls-1" d="M9.42,3.39c-.17,0-.27-.05-.27-.13,0-.05.04-.09.09-.09.04,0,.07.02.11.06.05.05.09.07.18.07.14,0,.32-.08.47-.22.13-.12.18-.22.21-.37.03-.16.04-.31.04-.46,0-.17,0-.33-.05-.48-.02-.09-.05-.14-.09-.14-.06,0-.1.09-.14.32,0,.01-.02.01-.02,0,.02-.31.11-.46.24-.46.09,0,.14.06.18.25.03.13.04.29.04.46,0,.18-.01.33-.05.54.3-.4.41-.67.41-.85,0-.15-.07-.21-.07-.3,0-.06.04-.1.09-.1.07,0,.11.05.11.18,0,.29-.19.69-.48,1.07-.27.35-.65.64-1,.64h0Z"/>
      <path class="cls-2" d="M15.99,2.7h-.72V.48l-1.07,2.22h-.67l-1-2.22v2.22h-.71V0h1.26l.82,1.83.87-1.83h1.21v2.7Z"/>
      <path class="cls-2" d="M19.76.56h-2.36v.48h2.07v.56h-2.07v.49h2.42v.62h-3.13V0h3.07v.56Z"/>
      <path class="cls-2" d="M23.58,2.7h-.98l-.79-1.03h-.86v1.03h-.7V0h2.28c.72,0,1.08.32,1.08.83,0,.46-.29.77-.89.83l.88,1.04ZM20.95.58v.48h1.57c.21,0,.34-.08.34-.25,0-.15-.13-.23-.34-.23h-1.57Z"/>
      <path class="cls-2" d="M24.91,2.7h-.71V0h.71v2.7Z"/>
      <path class="cls-2" d="M28.45.6h-1.18v2.09h-.7V.6h-1.18v-.6h3.07v.6Z"/>
    </g>
  </g>
</svg>