<?xml version="1.0" encoding="UTF-8"?>
<svg id="Layer_2" data-name="Layer 2" xmlns="http://www.w3.org/2000/svg" viewBox="0 0 919.27 134.01">
  <defs>
    <style>
      .cls-1 {
        fill: #3f3e19;
      }
    </style>
  </defs>
  <g id="Layer_1-2" data-name="Layer 1">
    <g>
      <g>
        <path class="cls-1" d="M137.2,0l51.62,120.38c1.75,4.09,4.88,7.86,9.11,9.06,2.42.69,5.45-1.15,6.9-2.9,1.74-2.1,2.27-4.72,2.39-7.35l.37-8.39.68-13.16.62-11.3.29-6.99.67-12.47.65-14.39.66-11.83.31-7.31.6-12.09c.28-5.53,1.44-12.27-4.84-14.68-5.03-1.93-8.84.07-7.27-3.12l15.01-.13,11.81-.1c1.2,0,1.8.71,2.2,1.72l2.78,6.97,38.42,86.11,3.65,8.96,4.75-10.96,34.49-76.51,6.54-15.43c.21-.49,1.51-.85,2.06-.85h25.11c.55.01,1.23.64,1.17,1.05-.3,2-4.51.34-9.03,2.87-3.79,2.12-4.04,6.27-3.85,10.43l.12,2.62c-5.02,6.59-6.87,13.45-5.29,21.8l-8.05,4.91c-.15.18-.5.57-.54.41l-.18-.72-.24-4.25-.69-13.16-.25-8.05c.05-.49-.04-.69-.54-.12l-47.84,111.83c-.19.44-.68.87-.96,1.02s-1.19-.15-1.34-.48l-46.8-103.5-3.87-9.36-.32,17.03-.3,10.67-.38,16.71-.64,22.89-.32,17.15-.26,10.17c-.08,3.15-.42,6.44.7,9.34,1.79,4.61,6.61,5.35,11.3,5.54.3.01.88.82.77,1.1s-.42.72-.74,1.08h-65.2c-.49-.36-.91-.75-1.03-1.07s.68-1.09,1.08-1.1c4.85-.13,9.28-.79,9.54-5.84-.31-2.6-.98-4.87-2.21-7.26l-14.91-35.38-46.15.02-13.83,35.35c-.99,2.19-1.63,4.27-1.94,6.57-.03,5.71,5.18,6.49,10.7,6.53.51.42.52,1.67.03,2.18h-32.95c-.81-.47-.82-1.64,0-2.27,6.41.43,10.94-4.09,13.4-9.82l6.31-14.72L133.38,5.93l1.84-4.33,1.01-1.6h.97ZM152.82,74.88l-18.19-43.25-2.71-7.07-19.72,50.3,40.62.02Z"/>
        <path class="cls-1" d="M0,100.35v-2.58c.53-.16,1.97-.27,2.34.22,5.13,15.92,16.29,28.13,33.47,29.58,8.04.68,16.77-.93,23.19-5.86,8.73-6.7,11.45-18.84,6.79-28.64-4.03-8.49-12.95-13.06-21.3-16.79l-16.54-7.37c-12.06-5.38-23.32-14.89-24.61-28.58-1.03-10.91,1.74-20.08,9.68-27.71,5.53-5.31,12.43-8.38,19.92-10.06,5.25-1.18,12.28-1.25,17.87-.78,7.57.64,14.79,2.79,21.78,5.42,1.52.57,1.73,1.8,1.86,3.11l1.16,12.15.51,3.35,1.65,8.69c.07.38-.57,1.4-.87,1.22l-1.14-.68c-1.85-5.92-4.58-11.41-8.5-16.24-5.99-7.46-14.69-11.25-24.21-11.13-6.24.08-12.02,1.36-17.22,4.84-5.09,3.41-8.47,8.76-9,14.85-.67,7.71,2.26,14.48,8.02,19.53,2.92,2.56,6.09,4.76,9.73,6.41l17.32,7.83c8.24,3.72,15.48,6.94,21.84,13.74,7.08,7.57,8.97,16.18,7.86,26.43-.42,3.87-1.59,7.47-3.28,11.03-5.48,11.5-17.62,19.01-30.11,20.88l-3.3.5c-4.4.27-8.75.47-13.11-.01l-4.93-.55c-7.28-.81-14.36-2.66-21.16-5.21-1.55-.58-1.31-2.52-1.44-3.72l-1.19-10.69-.52-3.18-1.66-9.04c-.04-.23-.06-.78-.23-.83l-.67-.15Z"/>
      </g>
      <path class="cls-1" d="M919.27,3.55v1.61l-2.9.49c-6.49,1-11.48,8.13-15.15,13.51l-36.37,53.31c-.86,1.26-1.89,2.56-2.21,4.03l.02,42.87c0,1.38.56,3.08.91,4.29,1.55,5.44,7.75,6.42,13.36,6.36.38,0,1.06.78.97,1.14-.08.3-.41.77-.73,1.11h-45.19c-.51-.5-.5-1.79.01-2.17,5.16-.05,11.74-.72,13.56-5.51.65-1.71,1.19-3.69,1.19-5.63v-42.08c.01-1.54-.99-2.81-1.84-4.05l-39.09-57.04c-3.59-5.24-8.03-10.22-14.4-10.46-.35-.01-.74-1-.65-1.32s.72-.75,1.17-.75h38.56c.6,0,1.32.95,1.13,1.34-.84,1.75-4.22-.06-7.59,2.31-1.76,1.24-2.53,3.46-1.41,5.28l3.96,6.4,26.62,39.17,6.85,10.49,33.07-52.35c.99-1.57,1.65-3.24,1.93-4.91.33-1.95-.7-3.66-2.37-4.49-3.67-1.82-7.99-.17-7.42-2.5.09-.37.88-.75,1.42-.75h30.96s1.65.28,1.65.28Z"/>
      <path class="cls-1" d="M821.56,126.8l-.36,3.27c-.08.76-.35,1.66-1.1,2.19h-165.74c-.61,0-1.28-.48-1.39-.84-.13-.43.42-1.4.94-1.4,6.14.01,11.18-1.73,11.82-8.02v-5.53s-.64-11.6-.64-11.6l-.31-7.31-.66-14.09-.65-11.83-.3-7.62-.62-10.99-.69-13.8-.25-6.99-.81-11.63-48.22,112.61c-.17.39-.88.81-1.18.75-.37-.08-.98-.55-1.22-1.08l-44.03-97.26-3.9-9.1-1.75-4.45-.19-.49c-.04-.1-.52.49-.53.61l-.14,5.72-.38,16.74-.64,22.89-.31,17.14-.3,5.81-.31,16.8-.16,13.95c-.05,4.53,3.2,7.97,7.55,8.37l4.42.41c.32.03.94.57.93.87,0,.36-.35.93-.75,1.35h-34.07c-.34-.43-.71-1.06-.68-1.42.03-.42,1.03-.8,1.46-.84l3.82-.35c3.8-.34,6.64-2.99,7.59-6.75.77-3.02.58-6.15.76-9.35l.7-12.47.67-13.78.63-11.29.29-6.99.66-12.48.65-13.45.31-8.18.36-3.38.3-8.17.38-7.59c.13-2.61-.54-5.6-2.42-7.42-4.61-4.45-12.29-1.27-9.98-4.9l15.19-.12,12.03-.05c1.17,0,1.5.94,1.86,1.79l5.94,14.14,31.72,70.92,6.87,16.44.54-.03,5.16-11.99,31.08-68.92,9.39-21.89c.48-.18,1.43-.49,1.85-.49h25.14c.59,0,1.14.59,1.14,1.11,0,1.63-3.35.61-7.52,2.11-6.14,2.2-5.24,8.51-5.02,13.84l.29,7.28.6,10.99.69,12.84.31,7.86.36,3.38.32,7.86.66,13.16.28,6.99.67,11.82.54,10.12.26,3.87c.21,3.26.23,6.53,1.96,9.43,2.7,4.55,12.43,5.15,18.29,2.74,2.5-1.03,3.78-3.14,4.26-5.57l.43-2.17V14.25c-.01-1.86-1.09-3.82-1.97-5.18-1.18-1.83-3.36-2.83-5.39-3.09l-4.31-.54c-.44-.06-1.31-.49-1.49-.84-.22-.4.74-1.33,1.35-1.33h79.96c.64,0,1.36.36,1.47.72s-.45,1.36-.86,1.38c-6.17.34-10.82,1.35-12.04,7.72l-.41,2.13.06,102.05c0,2.18,1.39,4.81,2.62,6.02,1.77,1.74,4.11,2.45,6.44,2.44l14.94-.03,10.47-.29,3.49-.45c11.41-1.49,17.26-10.07,21.16-20.09l.25-.5,3.42-9.5c.37-.05.9-.15.95-.11l.91.71c-2.66,10.33-4.65,20.66-5.84,31.32ZM745.16,126.1c.86-1.33,1.62-3.32,1.62-5.16V14.58c0-1.86-.79-3.77-1.68-5.15-2.65-4.12-9.98-4.47-15.05-3.57-5.36.96-7.45,4.41-7.8,9.83v104.14c0,3.76,1.67,7.74,5.31,9.08,5.25,1.94,14.68,1.71,17.59-2.81Z"/>
      <path class="cls-1" d="M370.13,113.63l3.96-.53c11.49-1.53,22.11-6.37,31.08-13.62l3.06-2.47,3.74-3.38c6.25-5.65,11.17-12.33,15.71-19.54,8.05-12.8,13.77-26.76,17.75-41.38l-8.68-5.86c-5.41-3.65-10.22-7.44-16.99-8.91-3.47-.75-7.32.41-9.82,2.98-2.83,2.91-3.71,7.24-2.21,11,.41,1.02,2.06,1.7,3,1.66,1.18-.05,2.19-.78,3.03-1.72,2.08-2.33,5.16-5.47,7.39-4.58.89.35,1.52,1.19,2.03,2.08,1.71,3.01,1.25,6.31-1.53,8.49-5.29,4.14-14.43,2.44-17.07-3.17-2.14-4.55-2.15-10.12.3-14.6,3.02-5.5,8.59-8.77,14.69-9.84l8.13-.09c3.27-.03,11.29,4.71,14.87,7.31l12.61,9.16.04,12.19-6.16-3.54c-9.87,37.75-32.45,79.27-73.09,88.2l-5.82,1.04-9.39.73h-2.9s-8.74-.67-8.74-.67l-2.75-.44-2.56-.35c-.94-2.39-1.11-5.23-1.21-7.96l-.2-5.33c9.01,3.33,18.35,4.35,27.7,3.11Z"/>
      <path class="cls-1" d="M335.65,48.13c-2.89,1.73-5.27,3.93-7.56,6.42-5.23,5.7-8.87,14.43-8.89,22.15v3.39s1.32,8.37,1.32,8.37l.38,3.15.58,12.42.31,9.72-4.15-3.95-3.33-4.07c-6.73-9.64-8.62-21.38-5.92-32.85,2.2-9.33,7.02-17.84,14.67-23.7l9.26-5.73-.52-7.69c-.1-1.44.38-3.47.77-4.92,5.28-19.55,33.87-29.39,51.33-18.44,4.6,2.88,7.37,7.06,8.52,12.31.42,1.93.68,3.9.02,5.83-.64,2.65-3.01,4.24-5.76,3.63-2.67.57-5.21-1.19-5.3-4.05l-.25-7.75c-.2-6.14-8.09-9.85-14.49-9.63-14.49.51-24.67,12.67-23.97,27.05l10.05-.78c5.56-.43,15.7,1.5,16.96,7.57,1.1,5.34-2.8,9.47-8.31,10.06-2.68.29-5.55.38-8.17-.06-6.46-1.07-13.59-3.51-17.53-8.45ZM363.64,50.89c1.38-1.59,1.34-3.69-.04-5-3.74-3.54-13.67-3.69-19.12-1.78-.5.68.11,2.1.68,2.75,2.66,3.03,6.1,4.62,9.98,5.62,2.9.74,6.37.85,8.49-1.58Z"/>
      <path class="cls-1" d="M346.3,129.02c5.04,1.84,8.89-.17,6.96,3.23l-40.65.02c-.31-.36-.62-.8-.74-1.08s.5-1.11.79-1.11c5.27-.02,10.93-1.6,11.66-7.03.53-3.91.16-7.97-.05-12.03l-.26-4.84-.62-11.62-.28-6.99-.65-13.26c-.09-1.88-.24-3.49.32-5.34,2.14-7,6.15-13.05,12.12-17.45l2.2,1.45.21,7.9.63,10.97.66,13.17.34,8.12.62,10.66.63,12.35.22,3.62.44,2.62c.52,3.12,2.38,5.53,5.45,6.65Z"/>
      <path class="cls-1" d="M361.94,47.51c1.25,5.15-10.34,2.75-14.33-1.65,4.87-.75,10.85-.8,14.33,1.65Z"/>
      <g>
        <path class="cls-1" d="M512.81,71.02c-2.81-2.22-6.09-3.46-9.84-3.49l-29.57-.24.08,50.02c0,1.88,1.09,4.07,2.09,5.36,1.65,2.13,4.33,3.08,6.97,3.08l16.23-.04,11.44-.29,4.25-.58c6.47-.88,11.99-4.05,15.88-9.39,2.8-3.85,4.6-8.21,6.29-12.72l1.23-3.28c.14-.38.77-.85,1.13-.89.53-.06.96.82.81,1.49l-3.44,15.02-2.12,13.01c-.25,1.56,0,3.06-1.48,4.18h-87.44c-.35-.35-.65-.78-.73-1.07s.44-1.07.78-1.1l4.01-.39c2.6-.25,5.03-1.34,6.53-3.61.62-.95,1.65-2.77,1.65-4.17l.02-106.36c0-3.14-.95-6.11-3.45-7.95-3.92-2.87-8.47-1.38-9.54-2.98-.21-.31.4-1.35.81-1.35l70.68-.08,7.49-.47,5.48-.57,1.53.03c.35,0,.63,1.02.67,1.38l.63,6.11.49,4.06,1.84,11.4,1.86,8.88c.08.38-.34,1.22-.72,1.24s-1.16-.55-1.27-.92c-1.2-3.85-2.46-7.36-4.23-10.95-3.56-7.2-9.76-12.4-17.84-13.14l-5.12-.47-20.87-.11c-2.76-1.53-5.76-2.55-8.92-2.14-6.16.26-11.27,4.9-11.33,11.12-.04,4.2,3.52,7.2,7.65,6.78v36.15s6.12-.19,6.12-.19l21.48-.57,5.49-.42c4.23-.32,8.4-3.17,9.3-7.37l1.4-6.54c.11-.49,1.32-.9,1.55-.47l-.24,6.71-.44,28.89c0,.52-.43,1.17-.84,1.25-.36.07-.95-.63-1.01-.99l-.66-4.19c-.39-2.44-1.3-4.65-2.74-6.69Z"/>
        <path class="cls-1" d="M485.46,22.58c.09-2.52-1.75-4.55-3.47-5.57-1.32-.78-2.26-.18-2.98.87l-2.23,3.25c-.99,1.45-2.64,1.86-4.38,1.83-2.26-.04-4.1-1.63-4.16-4.04-.12-5.11,4.26-8.94,9.33-8.97,3.01-.02,5.93.54,8.04,2.66,2.74,2.75,3.43,6.18,3.39,10.03-.09,8.36-5.06,15.97-12.96,19.34l-.05-7.46c5.06-1.9,9.27-6.35,9.46-11.94Z"/>
      </g>
    </g>
  </g>
</svg>