<?xml version="1.0" encoding="UTF-8"?>
<svg id="Layer_2" data-name="Layer 2" xmlns="http://www.w3.org/2000/svg" viewBox="0 0 78.38 99.42">
  <defs>
    <style>
      .cls-1 {
        fill: #888834;
      }
    </style>
  </defs>
  <g id="Layer_1-2" data-name="Layer 1">
    <g>
      <g>
        <path class="cls-1" d="M1.83,53.05c3.66-7.09,11.04-10.23,18.91-9.43,3.22.33,6.22,1.29,8.78,3.18,2.72,2,4.04,5.18,3.27,8.53-.83,3.6-3.41,6.55-6.76,8.02-2.47.85-5.06.77-7.16-.72l-.35-.44c-.09-.11.49-.3.65-.23,1.29.55,2.81,1.25,4.24,1.11,1.49-.15,2.76-.57,3.89-1.47,4.56-3.63,4.62-10.48.11-14.23-4.84-4.04-13.28-3.28-18.12,1.19-5.42,5.01-5.75,13.56-2.88,20.25,2.67,6.22,8.47,10.56,15.27,11.31,5.72.63,11.41-1.45,15.74-5.11l2.32-2.32c2.73-3.22,4.63-7.18,5.02-11.45l.2-2.16-.17-2.06c-.26-3.1-1.72-5.89-3.79-8.18l-1.43-1.59-1.58-1.48c-5.82-5.46-14.02-9.74-20.42-15.89l-1.38-1.64c-2.98-3.54-4.63-7.86-4.16-12.47.41-4.06,2.27-7.61,5.36-10.33C23.43.08,32.21-1.53,39.77,1.56c2.15.88,4.17,1.94,5.9,3.38,3.1,2.57,3.83,6.43,2.06,9.97-1.56,3.14-4.17,5.49-7.7,6.2-2.82.56-5.69-.13-7.64-2.25.39-.3.85-.2,1.24.04,2.92,1.82,6.44,2,9.33.19,2.36-1.48,3.7-3.93,3.34-6.79C45.28,4.34,36.68-.08,28.67,1.7c-6.81,1.51-11.14,7.61-10.37,14.45.4,3.53,2.07,6.54,4.65,8.9.91.83,1.69,1.72,2.68,2.47l10.11,7.74c3.74,2.86,7.2,5.77,10.2,9.39,2.47,2.98,4.15,6.39,4.41,10.3.7,10.67-6.24,19.53-15.66,23.92-4.36,2.03-8.97,2.86-13.75,2.4-3.44-.33-6.74-1.11-9.72-2.84-1.77-1.03-3.38-2.12-4.89-3.48-3.54-3.21-5.95-7.39-6.23-12.2l-.1-1.71.12-2.12c.12-2.07.76-4.05,1.7-5.87Z"/>
        <path class="cls-1" d="M64,49.67c-.15.08-.53.18-.58.07-.43-.85-.29-3.21-2.11-5.22-.96-.75-2.02-1.48-3.3-1.49l-6.94-.08v9.06s-.31.27-.31.27c-.05.05-.23-.14-.25-.2-.73-3.72-2.47-6.89-5.13-9.63l-.04-14.91-.21-2.57c-.27-1.85-1.01-3.15-2.67-4.21l3.07-.31,6.34-.63,2.26-.19,4.66-.18,11.64-.08.22,1.73v9.41c-.09.17-.37.59-.45.48l-.38-.54c-.19-1.78-.69-3.32-1.59-4.86-1.48-1.96-3.59-3.65-6.2-3.67l-10.96-.08v19.6s6.48-.03,6.48-.03c1.36,0,2.63-.85,3.72-1.56,2.62-2.05,1.01-5.02,2.73-5.76v15.57Z"/>
      </g>
      <path class="cls-1" d="M65.11,66.06l-15.56-.11.77-1.51,10.34-.1c2.42-.02,4.79-.58,6.92-1.64,2.71-1.35,4.52-3.79,5.32-6.65l.69-2.46c.22,0,.68-.02.66.08l-.14.58-.07,2.55-.18,2.14-.7,7.23-8.05-.1Z"/>
      <path class="cls-1" d="M25.64,97.31c-2.08.86-3.99,1.67-6.17,1.88h-3.93c-3.05,0-8.29-3-7.73-7.42.27-2.15,1.43-3.71,3.31-4.75,4.79-2.66,12.57-.75,17.59,1.5l4.14,1.86,4.15-4.25,3.14-3.17c3.33-3.04,6.84-5.73,10.96-7.64,6.67-3.1,15.48-4.94,21.94-1.3,3.82,2.16,5.75,6.07,5.29,10.41-.45,4.23-2.73,7.9-6.1,10.5-4.61,3.54-10.81,4.98-16.59,4.34-3.67-.4-7.09-1.36-10.58-2.56-3.68-1.34-7.1-2.85-10.6-4.65l-.89.11c-2.47,2.03-5.02,3.63-7.91,5.13ZM60.57,98.39c5.31-.48,10.06-2.81,13.5-6.74,4.16-4.75,4.87-11.61-.07-15.76-4.33-3.64-11.33-3.3-16.2-.88l-4.69,2.32c-3.32,2.08-6.31,4.35-9.35,6.81l-8.82,7.13c7.57,3.86,17.27,7.88,25.65,7.11ZM31.99,91.04c-5.14-2.59-10-4.43-15.72-4.37-3.67.04-7.27,1.88-7.52,5.36-.12,1.71.72,3.18,2.06,4.35,1.53,1.34,3.49,1.75,5.57,2.07,6.15.33,10.98-3.33,15.61-7.41Z"/>
    </g>
  </g>
</svg>