<?xml version="1.0" encoding="UTF-8"?>
<svg id="Layer_2" data-name="Layer 2" xmlns="http://www.w3.org/2000/svg" viewBox="0 0 104.46 108.36">
  <g id="Layer_1-2" data-name="Layer 1">
    <g fill="none" stroke="#000" stroke-linecap="round" stroke-linejoin="round" stroke-width="1.4">
      <path d="M104.34,45.9l-7.29-13.66-.06-3.02c0-.3-.14-.58-.37-.77l-5-4.18,6.37-8.76c.09-.13.16-.28.18-.43l1.87-10.81c.08-.44-.14-.88-.53-1.09-.39-.21-.88-.14-1.2.17l-7.27,7c-.07.06-.12.14-.17.22l-3.68,6.22.79-5.82c0-.07.01-.14,0-.22l-.73-9.8c-.03-.42-.32-.79-.73-.91-.41-.13-.85.01-1.11.35l-5.39,6.82c-.11.14-.18.3-.21.47l-2.42,14.17-25.1,11.15-29.08-.63c-.28-.01-.53.1-.73.28l-10.98,10.35c-.11.08-.2.18-.27.3l-4.48,5.4c-.12.14-.19.31-.22.49l-2.33,14.36-3.89,3.89c-.23.23-.34.56-.29.88l1.27,8.5c.06.41.36.74.77.85.4.1.83-.05,1.08-.38l5.24-6.91c.2-.26.26-.6.17-.92l-1.58-5.34,4.19-13.36.35-1.21,2.76,18.67-3.09,8.97c-.05.14-.07.3-.05.45l3.02,28.35c.06.53.5.92,1.03.92h7.78c.36,0,.69-.19.88-.49.19-.3.21-.68.05-1l-2.83-5.66-.15-18.05,1.82-1.7,6.23,23.27c.12.45.53.77,1,.77h.01l7.54-.08c.38,0,.73-.22.91-.56.18-.34.15-.75-.07-1.06l-3.77-5.38-3.19-16.04,8.52-9.77,10.89,6.43,1.95,29.79c.04.54.49.97,1.03.97h7.7c.36,0,.7-.19.89-.51.19-.31.19-.7.02-1.02l-3.34-6.07,1.95-17.68,1.67,20.75c.04.54.49.95,1.03.95h7.38c.36,0,.69-.19.88-.49.19-.31.2-.69.04-1.01l-3.35-6.56,3.18-30.65,11.99-19.75,7.47,5.12,2.52,2.78c.22.24.54.37.87.33l5.87-.6c.36-.04.68-.26.83-.6l3-6.54c.13-.29.12-.63-.03-.92ZM4.05,66.62l-1.33,5.87-.59-3.95,1.92-1.92ZM3.61,73.24l1.69-7.44,1.11,3.76-2.8,3.69ZM9.17,50.18l-1.48,4.72.83-5.1,1.18-1.43-.53,1.81ZM94.93,29.74l.06,2.8c0,.16.04.32.12.46l6.77,12.68-6.68-.8-12.37-16.96,6.75-2.67,5.36,4.48ZM85.09,22.66h.02s.03.02.04.03c0,0,.01,0,.02,0l3.87,1.67-5.82,2.31,1.88-4.01ZM92.57,11.75l4.9-4.72-1.29,7.46-6.6,9.08-3.13-1.47,6.12-10.36ZM81.8,8.28l3.59-4.53.53,7.06-1.45,10.77s0,.07,0,.11c0,0,0,0-.01.01l-2.51,5.01-2.68-3.72c.04-.08.06-.16.08-.25l2.47-14.45ZM81.33,27.62l-2.26,2.04-.18-5.42,2.44,3.38ZM77.84,23.9l.22,6.66-.1.09s-.08.08-.1.13l-7.41,13.19-16.11-9.63,23.5-10.44ZM33.43,43.8l-8.56-9.33,24.35.53-15.8,8.8ZM32.51,64.15l-19.08-19.77,19.36,1-.28,18.77ZM23.51,34.51l9.01,9.83-18.42-.95,9.41-8.87ZM13.32,47.77l-.1-2.11,19.25,19.95v.2s-16.21,1.89-16.21,1.89l-2.95-19.94ZM15.6,70.7l3.35,9.57-5.7-2.76,2.35-6.81ZM13.31,78.68l5.51,2.67.16,18.67c0,.12.04.23.08.33l-3.05,3.7-2.7-25.38ZM21.28,104.86h-4.59l2.86-3.47,1.73,3.47ZM19.89,79.83l-3.75-10.71.13-.38,15.43-1.8-9.18,10.44-2.63,2.45ZM35.51,101.94l-4.28.05,2.07-3.2,2.21,3.15ZM32.58,97.6c.02.09.07.17.11.25l-2.17,3.35-5.9-22.05,4.63,1.68s0,.01,0,.02l3.34,16.75ZM29.58,79.85l-4.9-1.78,9.29-10.56,4.19,2.51-8.58,9.83ZM59.71,106.29h-4.65l2.54-3.84,2.11,3.84ZM56.94,100.86c-.02.2.02.39.11.57l-2.4,3.62-1.8-27.51,7.11-3.96-3.01,27.28ZM69.38,102.72h-4.51l2.38-4.17,2.14,4.17ZM66.55,96.81c-.02.2.02.4.11.58l.03.05-2.16,3.8-2.33-28.91,7.32-4.08-2.96,28.57ZM71.46,62.68l.26-17.35c0-.32-.15-.62-.39-.81l6.8-12.09.26,7.75c0,.13.06.25.15.34l4.19,3.67s-.09.08-.12.13l-11.14,18.36ZM84.1,44.03l-4.69-4.09-.3-8.93,2.83-2.55,12.36,16.95-2.27,4.06-7.93-5.43ZM92.85,50.11l2.12-3.79,4.16,5.7-4.16.43-2.12-2.34ZM99.97,51.43l-3.95-5.41,6.1.73-2.15,4.68Z"/>
      <path d="M84.01,44.5l-4.44-4.56-.3-8.93,3.25-2.93c.2-.18.23-.47.07-.69l-3.71-5.13c-.13-.18-.37-.26-.59-.19-.21.07-.36.28-.35.51l.27,7.99-.1.09s-.08.08-.1.13l-7.41,13.19-17.5-10.46c-.32-.19-.71-.2-1.03-.02l-18.59,10.36c-.32.18-.52.52-.53.89l-.32,21.28c0,.37.19.71.5.9l18.27,10.92c.16.1.35.15.53.15.17,0,.35-.04.5-.13l18.59-10.36c.32-.18.52-.52.53-.89l.32-21.28c0-.32-.15-.62-.39-.81l6.8-12.09.26,7.75c0,.13.06.25.15.34l4.58,4.7c.2.2.53.21.73,0,.2-.2.21-.53,0-.73ZM52.56,35.59l16.31,9.75-16.61,9.74-16.89-9.9,17.2-9.59ZM51.96,75.76l-17.24-10.31.29-19.3,16.99,9.96c.08.05.17.07.26.07s.18-.02.26-.07l17.28-10.14-.3,20-17.55,9.78ZM79.05,24.24l2.44,3.38-2.26,2.04-.18-5.42Z"/>
      <path d="M51.93,77.51c.28,0,.51-.23.52-.51l.33-21.32c0-.29-.22-.52-.51-.52h0c-.28,0-.51.23-.52.51l-.33,21.32c0,.29.22.52.51.52h0Z"/>
    </g>
  </g>
</svg>
